<?xml version="1.0" encoding="UTF-8" standalone="no"?>
<svg
   height="32"
   version="1.1"
   viewBox="0 0 23.12442 32"
   width="23.12442"
   id="svg11"
   sodipodi:docname="315854_click_finger_icon.svg"
   inkscape:version="1.1.1 (3bf5ae0d25, 2021-09-20)"
   xmlns:inkscape="http://www.inkscape.org/namespaces/inkscape"
   xmlns:sodipodi="http://sodipodi.sourceforge.net/DTD/sodipodi-0.dtd"
   xmlns="http://www.w3.org/2000/svg"
   xmlns:svg="http://www.w3.org/2000/svg">
  <sodipodi:namedview
     id="namedview13"
     pagecolor="#505050"
     bordercolor="#eeeeee"
     borderopacity="1"
     inkscape:pageshadow="0"
     inkscape:pageopacity="0"
     inkscape:pagecheckerboard="0"
     showgrid="false"
     fit-margin-top="0"
     fit-margin-left="0"
     fit-margin-right="0"
     fit-margin-bottom="0"
     inkscape:zoom="22.46875"
     inkscape:cx="9.9694019"
     inkscape:cy="16"
     inkscape:window-width="1920"
     inkscape:window-height="1017"
     inkscape:window-x="1912"
     inkscape:window-y="-1"
     inkscape:window-maximized="1"
     inkscape:current-layer="svg11" />
  <title
     id="title2" />
  <desc
     id="desc4" />
  <defs
     id="defs6" />
  <g
     fill="none"
     fill-rule="evenodd"
     id="Page-1"
     stroke="none"
     stroke-width="1"
     transform="translate(-5)">
    <g
       fill="#929292"
       id="icon-27-one-finger-click">
      <path
         d="m 13.12442,0 v 4 h 1 V 0 Z m 6.402508,2.5768639 -3.108584,2.5172816 0.62932,0.7771459 3.108584,-2.5172815 z m 2.004928,6.7355595 -3.89748,-0.8998042 -0.224951,0.97437 3.89748,0.8998048 z M 5.9419353,10.286794 9.8394156,9.3869892 9.6144645,8.4126192 5.7169843,9.3124234 Z M 7.0925924,3.3540099 10.201176,5.8712914 10.830497,5.0941455 7.7219128,2.5768639 Z M 19.623159,31 c 4.142832,0 7.501261,-3.585225 7.501261,-7.5 0,0 0,2.313244 0,0 V 19.749162 17.501676 C 27.12442,16.672323 26.458623,16 25.62442,16 c -0.828427,0 -1.5,0.671189 -1.5,1.501676 V 18 h -1 V 15.506439 C 23.12442,14.674456 22.458623,14 21.62442,14 c -0.828427,0 -1.5,0.671541 -1.5,1.506439 V 17 h -1 V 14.506439 C 19.12442,13.674456 18.458623,13 17.62442,13 c -0.828427,0 -1.5,0.671541 -1.5,1.506439 V 18 h -1 V 7.5052412 C 15.12442,6.6739194 14.458623,6 13.62442,6 c -0.828427,0 -1.5,0.6671298 -1.5,1.5052412 V 18.799988 c -2.058399,-2.200421 -4.7683699,-4.620867 -5.878967,-3.504273 -1.0871697,1.093041 1.7143293,4.105007 5.626343,10.687379 1.76262,2.965794 3.992909,5.016448 7.751363,5.016906 z m 8.501261,-7.5 c 0,4.694421 -3.805579,8.5 -8.5,8.5 -3.112915,0 -6.398193,-1.452514 -8.659179,-5.571777 C 7.7017521,20.482516 3.5282732,16.583208 5.5155336,14.595947 6.9371827,13.174298 9.169262,14.538167 11.12442,16.366787 v 0 -8.8583784 C 11.12442,6.1154175 12.243709,5 13.62442,5 c 1.390338,0 2.5,1.1230528 2.5,2.5084086 V 12.498365 C 16.542251,12.185305 17.061617,12 17.62442,12 c 1.082518,0 1.994885,0.677467 2.345818,1.628124 C 20.411013,13.237989 20.990131,13 21.62442,13 c 1.390338,0 2.5,1.118226 2.5,2.497627 v 0.01346 c 0.417831,-0.312572 0.937197,-0.496897 1.5,-0.496897 1.390338,0 2.5,1.119344 2.5,2.500126 z"
         id="one-finger-click"
         style="fill:#000000;fill-opacity:1" />
    </g>
  </g>
</svg>
